<svg width="400" height="450" viewBox="0 0 400 450" fill="none" xmlns="http://www.w3.org/2000/svg">
<g clip-path="url(#clip0_1552_393)">
<path d="M40 250H160C160 283.137 133.137 310 100 310C66.8629 310 40 283.137 40 250Z" fill="white"/>
<rect x="85" y="150" width="30" height="80" fill="white"/>
<g clip-path="url(#clip1_1552_393)">
<path fill-rule="evenodd" clip-rule="evenodd" d="M179.744 119.673C158.545 138.538 130.611 150 100 150C33.7258 150 -20 96.2742 -20 30C-20 -36.2742 33.7258 -90 100 -90C130.611 -90 158.545 -78.5385 179.744 -59.6728C185.747 -67.7104 192.537 -75.1259 200 -81.8053C173.462 -105.557 138.418 -120 100 -120C17.1573 -120 -50 -52.8427 -50 30C-50 112.843 17.1573 180 100 180C138.418 180 173.462 165.557 200 141.805C192.537 135.126 185.747 127.71 179.744 119.673ZM200 96.3559C205.732 104.977 212.549 112.814 220.256 119.673C238.938 94.6593 250 63.6214 250 30C250 -3.62142 238.938 -34.6593 220.256 -59.6728C212.549 -52.8141 205.732 -44.9768 200 -36.3559C212.637 -17.3498 220 5.46525 220 30C220 54.5348 212.637 77.3498 200 96.3559Z" fill="white"/>
</g>
<path d="M10 0H0V350L10 354V0Z" fill="white"/>
<rect width="200" height="10" fill="white"/>
<path d="M0 340L200 440V450L0 350V340Z" fill="white"/>
<path fill-rule="evenodd" clip-rule="evenodd" d="M200 350V141.805C223.041 162.427 252.494 176.032 285 179.259V230H315V179.259V149.072C310.086 149.684 305.08 150 300 150C258.26 150 221.499 128.69 200 96.356V0H315H400V96.356V141.805V249V350L200 450V350ZM360 250C360 283.137 333.137 310 300 310C266.863 310 240 283.137 240 250H360Z" fill="white"/>
</g>
<defs>
<clipPath id="clip0_1552_393">
<rect width="400" height="450" fill="white"/>
</clipPath>
<clipPath id="clip1_1552_393">
<rect width="115" height="61" fill="white" transform="translate(85 119)"/>
</clipPath>
</defs>
</svg>
