<svg width="638" height="190" viewBox="0 0 638 190" fill="none" xmlns="http://www.w3.org/2000/svg">
<path fill-rule="evenodd" clip-rule="evenodd" d="M168 1H84V148V190L168 148V1Z" fill="#1E1E1E"/>
<path fill-rule="evenodd" clip-rule="evenodd" d="M84 1H0V148L84 190V148V1Z" fill="#FFCA5E"/>
<g clip-path="url(#clip0_1542_1218)">
<path d="M16.7998 106H67.1998C67.1998 119.918 55.9174 131.2 41.9998 131.2C28.0822 131.2 16.7998 119.918 16.7998 106Z" fill="#1E1E1E"/>
<path d="M100.8 106H151.2C151.2 119.918 139.917 131.2 126 131.2C112.082 131.2 100.8 119.918 100.8 106Z" fill="#FFCA5E"/>
<rect x="119.7" y="64" width="12.6" height="33.6" fill="#FFCA5E"/>
<rect x="35.7002" y="64" width="12.6" height="33.6" fill="#1E1E1E"/>
<g clip-path="url(#clip1_1542_1218)">
<circle cx="42" cy="13.5996" r="56.7" stroke="#1E1E1E" stroke-width="12.6"/>
</g>
<g clip-path="url(#clip2_1542_1218)">
<circle cx="126" cy="13.5996" r="56.7" stroke="#FFCA5E" stroke-width="12.6"/>
</g>
</g>
<g clip-path="url(#clip3_1542_1218)">
<path d="M197.156 96V16H231.844C237.937 16 243.055 16.8203 247.195 18.4609C251.362 20.1016 254.5 22.4193 256.609 25.4141C258.745 28.4089 259.813 31.9375 259.813 36C259.813 38.9427 259.161 41.625 257.859 44.0469C256.583 46.4687 254.786 48.5 252.469 50.1406C250.151 51.7552 247.443 52.875 244.344 53.5V54.2812C247.781 54.4115 250.906 55.2839 253.719 56.8984C256.531 58.487 258.771 60.6875 260.438 63.5C262.104 66.2865 262.938 69.5677 262.938 73.3437C262.938 77.7187 261.792 81.612 259.5 85.0234C257.234 88.4349 254.005 91.1172 249.813 93.0703C245.62 95.0234 240.62 96 234.813 96H197.156ZM218.875 78.6563H229.031C232.677 78.6563 235.411 77.9792 237.234 76.625C239.057 75.2448 239.969 73.2135 239.969 70.5312C239.969 68.6562 239.539 67.0677 238.68 65.7656C237.82 64.4635 236.596 63.474 235.008 62.7969C233.445 62.1198 231.557 61.7812 229.344 61.7812H218.875V78.6563ZM218.875 48.3437H227.781C229.682 48.3437 231.362 48.0443 232.82 47.4453C234.279 46.8464 235.411 45.987 236.219 44.8672C237.052 43.7214 237.469 42.3281 237.469 40.6875C237.469 38.2135 236.583 36.3255 234.813 35.0234C233.042 33.6953 230.802 33.0312 228.094 33.0312H218.875V48.3437ZM296.752 16V96H275.033V16H296.752ZM311.445 96V16H333.163V78.5H365.507V96H311.445ZM399.468 96H376.03L402.436 16H432.124L458.53 96H435.093L417.593 38.0313H416.968L399.468 96ZM395.093 64.4375H439.155V80.6875H395.093V64.4375ZM539.854 16V96H521.729L492.823 53.9687H492.354V96H470.635V16H489.073L517.51 57.875H518.135V16H539.854ZM577.809 16L590.934 39.2812H591.559L604.84 16H629.059L605.152 56L629.996 96H605.152L591.559 72.25H590.934L577.34 96H552.652L577.184 56L553.434 16H577.809Z" fill="#1E1E1E"/>
</g>
<path d="M201.945 153H196.882L206.099 126.818H211.955L221.185 153H216.122L209.129 132.188H208.925L201.945 153ZM202.111 142.734H215.918V146.544H202.111V142.734ZM241.137 126.818H245.88V143.923C245.88 145.798 245.437 147.447 244.551 148.871C243.673 150.294 242.437 151.406 240.843 152.207C239.25 153 237.387 153.396 235.257 153.396C233.118 153.396 231.251 153 229.657 152.207C228.064 151.406 226.828 150.294 225.95 148.871C225.072 147.447 224.633 145.798 224.633 143.923V126.818H229.376V143.527C229.376 144.618 229.615 145.589 230.092 146.442C230.578 147.294 231.26 147.963 232.137 148.449C233.015 148.926 234.055 149.165 235.257 149.165C236.458 149.165 237.498 148.926 238.376 148.449C239.262 147.963 239.944 147.294 240.422 146.442C240.899 145.589 241.137 144.618 241.137 143.527V126.818ZM249.885 130.794V126.818H270.774V130.794H262.682V153H257.977V130.794H249.885ZM289.03 134.016C288.911 132.899 288.408 132.03 287.521 131.408C286.643 130.786 285.501 130.474 284.095 130.474C283.107 130.474 282.259 130.624 281.551 130.922C280.844 131.22 280.303 131.625 279.928 132.136C279.553 132.648 279.361 133.232 279.352 133.888C279.352 134.433 279.476 134.906 279.723 135.307C279.979 135.707 280.324 136.048 280.759 136.33C281.193 136.602 281.675 136.832 282.203 137.02C282.732 137.207 283.264 137.365 283.801 137.493L286.256 138.107C287.244 138.337 288.195 138.648 289.107 139.04C290.027 139.432 290.849 139.926 291.574 140.523C292.307 141.119 292.886 141.839 293.312 142.683C293.739 143.527 293.952 144.516 293.952 145.649C293.952 147.183 293.56 148.534 292.776 149.702C291.991 150.861 290.858 151.768 289.375 152.425C287.901 153.072 286.115 153.396 284.018 153.396C281.982 153.396 280.213 153.081 278.713 152.45C277.222 151.82 276.054 150.899 275.21 149.689C274.375 148.479 273.923 147.004 273.855 145.266H278.521C278.589 146.178 278.871 146.936 279.365 147.541C279.859 148.146 280.503 148.598 281.295 148.896C282.097 149.195 282.991 149.344 283.98 149.344C285.011 149.344 285.915 149.19 286.69 148.884C287.474 148.568 288.088 148.134 288.531 147.58C288.974 147.017 289.2 146.361 289.209 145.611C289.2 144.929 289 144.366 288.608 143.923C288.216 143.472 287.666 143.097 286.959 142.798C286.26 142.491 285.442 142.219 284.504 141.98L281.526 141.213C279.369 140.659 277.665 139.82 276.412 138.695C275.168 137.561 274.545 136.057 274.545 134.182C274.545 132.639 274.963 131.288 275.798 130.129C276.642 128.97 277.788 128.071 279.237 127.432C280.686 126.784 282.327 126.46 284.159 126.46C286.017 126.46 287.645 126.784 289.043 127.432C290.449 128.071 291.553 128.962 292.354 130.104C293.155 131.237 293.568 132.541 293.594 134.016H289.03ZM321.575 139.909C321.575 142.73 321.047 145.146 319.99 147.158C318.941 149.161 317.51 150.695 315.694 151.76C313.887 152.825 311.838 153.358 309.545 153.358C307.252 153.358 305.199 152.825 303.383 151.76C301.576 150.686 300.145 149.148 299.088 147.145C298.039 145.134 297.515 142.722 297.515 139.909C297.515 137.088 298.039 134.676 299.088 132.673C300.145 130.662 301.576 129.124 303.383 128.058C305.199 126.993 307.252 126.46 309.545 126.46C311.838 126.46 313.887 126.993 315.694 128.058C317.51 129.124 318.941 130.662 319.99 132.673C321.047 134.676 321.575 137.088 321.575 139.909ZM316.806 139.909C316.806 137.923 316.495 136.249 315.873 134.885C315.26 133.513 314.407 132.477 313.316 131.778C312.225 131.071 310.968 130.717 309.545 130.717C308.122 130.717 306.865 131.071 305.774 131.778C304.683 132.477 303.826 133.513 303.204 134.885C302.591 136.249 302.284 137.923 302.284 139.909C302.284 141.895 302.591 143.574 303.204 144.946C303.826 146.31 304.683 147.345 305.774 148.053C306.865 148.751 308.122 149.101 309.545 149.101C310.968 149.101 312.225 148.751 313.316 148.053C314.407 147.345 315.26 146.31 315.873 144.946C316.495 143.574 316.806 141.895 316.806 139.909ZM326.059 153V126.818H335.877C337.888 126.818 339.576 127.168 340.94 127.866C342.312 128.565 343.347 129.545 344.046 130.807C344.754 132.06 345.107 133.521 345.107 135.192C345.107 136.871 344.749 138.328 344.033 139.564C343.326 140.791 342.282 141.741 340.901 142.415C339.521 143.08 337.825 143.412 335.813 143.412H328.82V139.474H335.174C336.35 139.474 337.313 139.312 338.063 138.989C338.813 138.656 339.367 138.175 339.725 137.544C340.092 136.905 340.275 136.121 340.275 135.192C340.275 134.263 340.092 133.47 339.725 132.814C339.359 132.149 338.8 131.646 338.05 131.305C337.3 130.956 336.333 130.781 335.148 130.781H330.802V153H326.059ZM339.585 141.136L346.066 153H340.773L334.407 141.136H339.585ZM371.884 135.652H367.102C366.966 134.868 366.714 134.173 366.348 133.568C365.982 132.955 365.526 132.435 364.98 132.009C364.435 131.582 363.813 131.263 363.114 131.05C362.423 130.828 361.678 130.717 360.876 130.717C359.453 130.717 358.192 131.075 357.092 131.791C355.993 132.499 355.132 133.538 354.51 134.911C353.888 136.274 353.577 137.94 353.577 139.909C353.577 141.912 353.888 143.599 354.51 144.972C355.141 146.335 356.001 147.366 357.092 148.065C358.192 148.756 359.449 149.101 360.864 149.101C361.648 149.101 362.381 148.999 363.062 148.794C363.753 148.581 364.371 148.27 364.916 147.861C365.47 147.452 365.935 146.949 366.31 146.352C366.693 145.756 366.957 145.074 367.102 144.307L371.884 144.332C371.705 145.577 371.317 146.744 370.72 147.835C370.132 148.926 369.361 149.889 368.406 150.724C367.452 151.551 366.335 152.199 365.057 152.668C363.778 153.128 362.359 153.358 360.8 153.358C358.499 153.358 356.445 152.825 354.638 151.76C352.831 150.695 351.408 149.156 350.368 147.145C349.328 145.134 348.808 142.722 348.808 139.909C348.808 137.088 349.332 134.676 350.381 132.673C351.429 130.662 352.857 129.124 354.663 128.058C356.47 126.993 358.516 126.46 360.8 126.46C362.257 126.46 363.612 126.665 364.865 127.074C366.118 127.483 367.234 128.084 368.214 128.876C369.195 129.661 370 130.624 370.631 131.766C371.27 132.899 371.688 134.195 371.884 135.652ZM380.97 126.818V153H376.227V126.818H380.97ZM407.621 126.818V153H403.403L391.066 135.166H390.849V153H386.106V126.818H390.35L402.674 144.665H402.904V126.818H407.621ZM430.329 135.179C430.116 134.489 429.822 133.871 429.447 133.325C429.081 132.771 428.637 132.298 428.118 131.906C427.606 131.514 427.018 131.22 426.353 131.024C425.689 130.82 424.964 130.717 424.18 130.717C422.774 130.717 421.521 131.071 420.422 131.778C419.322 132.486 418.457 133.526 417.826 134.898C417.204 136.261 416.893 137.923 416.893 139.884C416.893 141.861 417.204 143.536 417.826 144.908C418.449 146.28 419.314 147.324 420.422 148.04C421.529 148.747 422.816 149.101 424.282 149.101C425.612 149.101 426.762 148.845 427.734 148.334C428.714 147.822 429.468 147.098 429.997 146.161C430.525 145.214 430.789 144.107 430.789 142.837L431.863 143.003H424.755V139.295H435.379V142.44C435.379 144.682 434.902 146.621 433.947 148.257C432.993 149.893 431.68 151.155 430.01 152.041C428.339 152.919 426.422 153.358 424.257 153.358C421.845 153.358 419.727 152.817 417.903 151.734C416.088 150.643 414.669 149.097 413.646 147.094C412.632 145.082 412.125 142.696 412.125 139.935C412.125 137.821 412.423 135.933 413.02 134.271C413.625 132.609 414.468 131.199 415.551 130.04C416.633 128.872 417.903 127.986 419.36 127.381C420.818 126.767 422.403 126.46 424.116 126.46C425.565 126.46 426.916 126.673 428.169 127.099C429.422 127.517 430.534 128.114 431.505 128.889C432.485 129.665 433.291 130.585 433.922 131.651C434.552 132.716 434.966 133.892 435.162 135.179H430.329ZM471.305 135.652H466.524C466.388 134.868 466.136 134.173 465.77 133.568C465.403 132.955 464.947 132.435 464.402 132.009C463.857 131.582 463.234 131.263 462.536 131.05C461.845 130.828 461.099 130.717 460.298 130.717C458.875 130.717 457.614 131.075 456.514 131.791C455.415 132.499 454.554 133.538 453.932 134.911C453.31 136.274 452.999 137.94 452.999 139.909C452.999 141.912 453.31 143.599 453.932 144.972C454.563 146.335 455.423 147.366 456.514 148.065C457.614 148.756 458.871 149.101 460.286 149.101C461.07 149.101 461.803 148.999 462.484 148.794C463.175 148.581 463.793 148.27 464.338 147.861C464.892 147.452 465.357 146.949 465.732 146.352C466.115 145.756 466.379 145.074 466.524 144.307L471.305 144.332C471.126 145.577 470.739 146.744 470.142 147.835C469.554 148.926 468.783 149.889 467.828 150.724C466.874 151.551 465.757 152.199 464.479 152.668C463.2 153.128 461.781 153.358 460.222 153.358C457.92 153.358 455.866 152.825 454.06 151.76C452.253 150.695 450.83 149.156 449.79 147.145C448.75 145.134 448.23 142.722 448.23 139.909C448.23 137.088 448.754 134.676 449.803 132.673C450.851 130.662 452.278 129.124 454.085 128.058C455.892 126.993 457.938 126.46 460.222 126.46C461.679 126.46 463.034 126.665 464.287 127.074C465.54 127.483 466.656 128.084 467.636 128.876C468.616 129.661 469.422 130.624 470.053 131.766C470.692 132.899 471.109 134.195 471.305 135.652ZM499.044 139.909C499.044 142.73 498.515 145.146 497.458 147.158C496.41 149.161 494.978 150.695 493.163 151.76C491.356 152.825 489.306 153.358 487.014 153.358C484.721 153.358 482.667 152.825 480.852 151.76C479.045 150.686 477.613 149.148 476.556 147.145C475.508 145.134 474.984 142.722 474.984 139.909C474.984 137.088 475.508 134.676 476.556 132.673C477.613 130.662 479.045 129.124 480.852 128.058C482.667 126.993 484.721 126.46 487.014 126.46C489.306 126.46 491.356 126.993 493.163 128.058C494.978 129.124 496.41 130.662 497.458 132.673C498.515 134.676 499.044 137.088 499.044 139.909ZM494.275 139.909C494.275 137.923 493.964 136.249 493.342 134.885C492.728 133.513 491.876 132.477 490.785 131.778C489.694 131.071 488.437 130.717 487.014 130.717C485.591 130.717 484.333 131.071 483.243 131.778C482.152 132.477 481.295 133.513 480.673 134.885C480.059 136.249 479.752 137.923 479.752 139.909C479.752 141.895 480.059 143.574 480.673 144.946C481.295 146.31 482.152 147.345 483.243 148.053C484.333 148.751 485.591 149.101 487.014 149.101C488.437 149.101 489.694 148.751 490.785 148.053C491.876 147.345 492.728 146.31 493.342 144.946C493.964 143.574 494.275 141.895 494.275 139.909ZM503.528 126.818H509.332L517.104 145.79H517.411L525.184 126.818H530.988V153H526.437V135.013H526.194L518.958 152.923H515.558L508.322 134.974H508.079V153H503.528V126.818ZM536.153 153V126.818H545.971C547.982 126.818 549.67 127.193 551.033 127.943C552.406 128.693 553.441 129.724 554.14 131.037C554.847 132.341 555.201 133.824 555.201 135.486C555.201 137.165 554.847 138.656 554.14 139.96C553.433 141.264 552.388 142.291 551.008 143.041C549.627 143.783 547.927 144.153 545.907 144.153H539.4V140.254H545.268C546.444 140.254 547.407 140.05 548.157 139.641C548.907 139.232 549.461 138.669 549.819 137.953C550.185 137.237 550.369 136.415 550.369 135.486C550.369 134.557 550.185 133.739 549.819 133.031C549.461 132.324 548.903 131.774 548.144 131.382C547.394 130.982 546.427 130.781 545.242 130.781H540.896V153H536.153ZM559.765 153H554.702L563.92 126.818H569.775L579.005 153H573.942L566.95 132.188H566.745L559.765 153ZM559.931 142.734H573.738V146.544H559.931V142.734ZM603.969 126.818V153H599.75L587.414 135.166H587.196V153H582.453V126.818H586.698L599.022 144.665H599.252V126.818H603.969ZM607.347 126.818H612.704L619.109 138.401H619.364L625.769 126.818H631.126L621.602 143.233V153H616.871V143.233L607.347 126.818Z" fill="#ACA7A4"/>
<defs>
<clipPath id="clip0_1542_1218">
<rect width="134.4" height="114.24" fill="white" transform="translate(16.7998 16.96)"/>
</clipPath>
<clipPath id="clip1_1542_1218">
<rect width="48.3" height="59.64" fill="white" transform="translate(35.7002 16.96)"/>
</clipPath>
<clipPath id="clip2_1542_1218">
<rect width="69.3" height="59.64" fill="white" transform="translate(63 16.96)"/>
</clipPath>
<clipPath id="clip3_1542_1218">
<rect width="437" height="110" fill="white" transform="translate(196)"/>
</clipPath>
</defs>
</svg>
