<svg width="648" height="190" viewBox="0 0 648 190" fill="none" xmlns="http://www.w3.org/2000/svg">
<g clip-path="url(#clip0_1542_1264)">
<path fill-rule="evenodd" clip-rule="evenodd" d="M168 1H84V148V190L168 148V1Z" fill="#1E1E1E"/>
<path fill-rule="evenodd" clip-rule="evenodd" d="M84 1H0V148L84 190V148V1Z" fill="#FFCA5E"/>
<g clip-path="url(#clip1_1542_1264)">
<path d="M16.7998 106H67.1998C67.1998 119.918 55.9174 131.2 41.9998 131.2C28.0822 131.2 16.7998 119.918 16.7998 106Z" fill="#1E1E1E"/>
<path d="M100.8 106H151.2C151.2 119.918 139.917 131.2 126 131.2C112.082 131.2 100.8 119.918 100.8 106Z" fill="#FFCA5E"/>
<rect x="119.7" y="64" width="12.6" height="33.6" fill="#FFCA5E"/>
<rect x="35.7002" y="64" width="12.6" height="33.6" fill="#1E1E1E"/>
<g clip-path="url(#clip2_1542_1264)">
<circle cx="42" cy="13.5996" r="56.7" stroke="#1E1E1E" stroke-width="12.6"/>
</g>
<g clip-path="url(#clip3_1542_1264)">
<circle cx="126" cy="13.5996" r="56.7" stroke="#FFCA5E" stroke-width="12.6"/>
</g>
</g>
<g clip-path="url(#clip4_1542_1264)">
<path d="M197.156 96V16H231.844C237.937 16 243.055 16.8203 247.195 18.4609C251.362 20.1016 254.5 22.4193 256.609 25.4141C258.745 28.4089 259.813 31.9375 259.813 36C259.813 38.9427 259.161 41.625 257.859 44.0469C256.583 46.4687 254.786 48.5 252.469 50.1406C250.151 51.7552 247.443 52.875 244.344 53.5V54.2812C247.781 54.4115 250.906 55.2839 253.719 56.8984C256.531 58.487 258.771 60.6875 260.438 63.5C262.104 66.2865 262.938 69.5677 262.938 73.3437C262.938 77.7187 261.792 81.612 259.5 85.0234C257.234 88.4349 254.005 91.1172 249.813 93.0703C245.62 95.0234 240.62 96 234.813 96H197.156ZM218.875 78.6563H229.031C232.677 78.6563 235.411 77.9792 237.234 76.625C239.057 75.2448 239.969 73.2135 239.969 70.5312C239.969 68.6562 239.539 67.0677 238.68 65.7656C237.82 64.4635 236.596 63.474 235.008 62.7969C233.445 62.1198 231.557 61.7812 229.344 61.7812H218.875V78.6563ZM218.875 48.3437H227.781C229.682 48.3437 231.362 48.0443 232.82 47.4453C234.279 46.8464 235.411 45.987 236.219 44.8672C237.052 43.7214 237.469 42.3281 237.469 40.6875C237.469 38.2135 236.583 36.3255 234.813 35.0234C233.042 33.6953 230.802 33.0312 228.094 33.0312H218.875V48.3437ZM296.752 16V96H275.033V16H296.752ZM311.445 96V16H333.163V78.5H365.507V96H311.445ZM399.468 96H376.03L402.436 16H432.124L458.53 96H435.093L417.593 38.0313H416.968L399.468 96ZM395.093 64.4375H439.155V80.6875H395.093V64.4375ZM539.854 16V96H521.729L492.823 53.9687H492.354V96H470.635V16H489.073L517.51 57.875H518.135V16H539.854ZM577.809 16L590.934 39.2812H591.559L604.84 16H629.059L605.152 56L629.996 96H605.152L591.559 72.25H590.934L577.34 96H552.652L577.184 56L553.434 16H577.809Z" fill="#1E1E1E"/>
</g>
<path d="M201.28 146H196.666L203.696 125.636H209.244L216.264 146H211.651L206.55 130.29H206.391L201.28 146ZM200.991 137.996H211.889V141.357H200.991V137.996ZM218.835 146.278V142.778H219.938C220.488 142.778 220.933 142.712 221.271 142.58C221.609 142.44 221.877 142.238 222.076 141.973C222.281 141.701 222.454 141.363 222.593 140.959L222.842 140.293L215.444 125.636H219.898L224.691 135.659L228.698 125.636H233.093L226.073 142.003C225.735 142.759 225.334 143.461 224.87 144.111C224.413 144.76 223.826 145.284 223.11 145.682C222.394 146.08 221.479 146.278 220.366 146.278H218.835ZM235.932 129.186V125.636H252.656V129.186H246.422V146H242.166V129.186H235.932ZM272.448 132.766H268.093C268.013 132.202 267.851 131.702 267.606 131.264C267.361 130.82 267.046 130.442 266.661 130.131C266.277 129.819 265.833 129.58 265.329 129.415C264.832 129.249 264.291 129.166 263.708 129.166C262.654 129.166 261.736 129.428 260.954 129.952C260.172 130.469 259.565 131.224 259.134 132.219C258.703 133.206 258.488 134.406 258.488 135.818C258.488 137.27 258.703 138.49 259.134 139.477C259.572 140.465 260.182 141.211 260.964 141.714C261.746 142.218 262.651 142.47 263.678 142.47C264.255 142.47 264.789 142.394 265.279 142.241C265.776 142.089 266.217 141.867 266.602 141.575C266.986 141.277 267.304 140.916 267.556 140.491C267.815 140.067 267.994 139.583 268.093 139.04L272.448 139.06C272.335 139.994 272.054 140.896 271.603 141.764C271.159 142.626 270.559 143.398 269.803 144.081C269.054 144.757 268.159 145.294 267.119 145.692C266.085 146.083 264.915 146.278 263.609 146.278C261.792 146.278 260.168 145.867 258.737 145.045C257.311 144.223 256.184 143.034 255.356 141.476C254.534 139.918 254.123 138.032 254.123 135.818C254.123 133.598 254.54 131.708 255.376 130.151C256.211 128.593 257.344 127.406 258.776 126.591C260.208 125.769 261.819 125.358 263.609 125.358C264.789 125.358 265.882 125.524 266.89 125.855C267.904 126.187 268.802 126.67 269.585 127.307C270.367 127.937 271.003 128.709 271.494 129.624C271.991 130.538 272.309 131.586 272.448 132.766ZM294.249 135.818C294.249 138.039 293.828 139.928 292.986 141.486C292.151 143.044 291.01 144.233 289.565 145.055C288.127 145.871 286.509 146.278 284.713 146.278C282.903 146.278 281.279 145.867 279.841 145.045C278.402 144.223 277.266 143.034 276.43 141.476C275.595 139.918 275.178 138.032 275.178 135.818C275.178 133.598 275.595 131.708 276.43 130.151C277.266 128.593 278.402 127.406 279.841 126.591C281.279 125.769 282.903 125.358 284.713 125.358C286.509 125.358 288.127 125.769 289.565 126.591C291.01 127.406 292.151 128.593 292.986 130.151C293.828 131.708 294.249 133.598 294.249 135.818ZM289.884 135.818C289.884 134.38 289.668 133.167 289.237 132.179C288.813 131.191 288.213 130.442 287.438 129.932C286.662 129.421 285.754 129.166 284.713 129.166C283.672 129.166 282.764 129.421 281.989 129.932C281.213 130.442 280.61 131.191 280.179 132.179C279.755 133.167 279.543 134.38 279.543 135.818C279.543 137.257 279.755 138.47 280.179 139.457C280.61 140.445 281.213 141.194 281.989 141.705C282.764 142.215 283.672 142.47 284.713 142.47C285.754 142.47 286.662 142.215 287.438 141.705C288.213 141.194 288.813 140.445 289.237 139.457C289.668 138.47 289.884 137.257 289.884 135.818ZM297.438 146V125.636H305.472C307.016 125.636 308.332 125.931 309.419 126.521C310.507 127.105 311.335 127.917 311.905 128.957C312.482 129.991 312.77 131.185 312.77 132.537C312.77 133.889 312.479 135.082 311.895 136.116C311.312 137.151 310.467 137.956 309.36 138.533C308.259 139.109 306.927 139.398 305.363 139.398H300.242V135.947H304.667C305.495 135.947 306.178 135.805 306.715 135.52C307.258 135.228 307.663 134.827 307.928 134.317C308.2 133.8 308.336 133.206 308.336 132.537C308.336 131.861 308.2 131.271 307.928 130.767C307.663 130.257 307.258 129.862 306.715 129.584C306.171 129.299 305.482 129.156 304.647 129.156H301.743V146H297.438ZM333.534 132.766H329.179C329.099 132.202 328.937 131.702 328.692 131.264C328.446 130.82 328.132 130.442 327.747 130.131C327.363 129.819 326.919 129.58 326.415 129.415C325.918 129.249 325.377 129.166 324.794 129.166C323.74 129.166 322.822 129.428 322.04 129.952C321.258 130.469 320.651 131.224 320.22 132.219C319.789 133.206 319.574 134.406 319.574 135.818C319.574 137.27 319.789 138.49 320.22 139.477C320.658 140.465 321.268 141.211 322.05 141.714C322.832 142.218 323.737 142.47 324.764 142.47C325.341 142.47 325.875 142.394 326.365 142.241C326.862 142.089 327.303 141.867 327.688 141.575C328.072 141.277 328.39 140.916 328.642 140.491C328.901 140.067 329.08 139.583 329.179 139.04L333.534 139.06C333.421 139.994 333.14 140.896 332.689 141.764C332.245 142.626 331.645 143.398 330.889 144.081C330.14 144.757 329.245 145.294 328.205 145.692C327.17 146.083 326 146.278 324.695 146.278C322.878 146.278 321.254 145.867 319.822 145.045C318.397 144.223 317.27 143.034 316.442 141.476C315.62 139.918 315.209 138.032 315.209 135.818C315.209 133.598 315.626 131.708 316.462 130.151C317.297 128.593 318.43 127.406 319.862 126.591C321.294 125.769 322.905 125.358 324.695 125.358C325.875 125.358 326.968 125.524 327.976 125.855C328.99 126.187 329.888 126.67 330.67 127.307C331.453 127.937 332.089 128.709 332.58 129.624C333.077 130.538 333.395 131.586 333.534 132.766ZM336.621 125.636H340.917V138.443H341.086L349.886 125.636H353.654V146H349.349V133.183H349.2L340.35 146H336.621V125.636ZM357.211 146V125.636H361.517V134.038H370.257V125.636H374.552V146H370.257V137.588H361.517V146H357.211ZM391.615 125.636V129.186H382.407V146H378.102V125.636H391.615ZM412.155 135.818C412.155 138.039 411.734 139.928 410.892 141.486C410.057 143.044 408.917 144.233 407.472 145.055C406.033 145.871 404.416 146.278 402.619 146.278C400.81 146.278 399.186 145.867 397.747 145.045C396.309 144.223 395.172 143.034 394.337 141.476C393.501 139.918 393.084 138.032 393.084 135.818C393.084 133.598 393.501 131.708 394.337 130.151C395.172 128.593 396.309 127.406 397.747 126.591C399.186 125.769 400.81 125.358 402.619 125.358C404.416 125.358 406.033 125.769 407.472 126.591C408.917 127.406 410.057 128.593 410.892 130.151C411.734 131.708 412.155 133.598 412.155 135.818ZM407.79 135.818C407.79 134.38 407.574 133.167 407.143 132.179C406.719 131.191 406.119 130.442 405.344 129.932C404.568 129.421 403.66 129.166 402.619 129.166C401.579 129.166 400.67 129.421 399.895 129.932C399.119 130.442 398.516 131.191 398.085 132.179C397.661 133.167 397.449 134.38 397.449 135.818C397.449 137.257 397.661 138.47 398.085 139.457C398.516 140.445 399.119 141.194 399.895 141.705C400.67 142.215 401.579 142.47 402.619 142.47C403.66 142.47 404.568 142.215 405.344 141.705C406.119 141.194 406.719 140.445 407.143 139.457C407.574 138.47 407.79 137.257 407.79 135.818ZM415.344 146V125.636H423.498C424.996 125.636 426.245 125.858 427.246 126.303C428.247 126.747 428.999 127.363 429.503 128.152C430.007 128.934 430.259 129.836 430.259 130.857C430.259 131.652 430.1 132.351 429.782 132.955C429.463 133.551 429.026 134.042 428.469 134.426C427.919 134.804 427.289 135.072 426.58 135.232V135.43C427.355 135.464 428.081 135.682 428.757 136.087C429.44 136.491 429.994 137.058 430.418 137.787C430.842 138.509 431.054 139.371 431.054 140.372C431.054 141.453 430.786 142.417 430.249 143.266C429.719 144.107 428.933 144.774 427.892 145.264C426.852 145.755 425.569 146 424.044 146H415.344ZM419.65 142.48H423.159C424.359 142.48 425.234 142.251 425.784 141.794C426.335 141.33 426.61 140.714 426.61 139.945C426.61 139.381 426.474 138.884 426.202 138.453C425.93 138.022 425.542 137.684 425.039 137.439C424.542 137.194 423.948 137.071 423.259 137.071H419.65V142.48ZM419.65 134.158H422.841C423.431 134.158 423.955 134.055 424.412 133.849C424.876 133.637 425.241 133.339 425.506 132.955C425.778 132.57 425.914 132.109 425.914 131.572C425.914 130.837 425.652 130.243 425.128 129.793C424.611 129.342 423.875 129.116 422.921 129.116H419.65V134.158ZM437.366 146H432.752L439.782 125.636H445.33L452.35 146H447.737L442.636 130.29H442.477L437.366 146ZM437.077 137.996H447.975V141.357H437.077V137.996ZM470.432 146H466.136V129.156H463.233C462.404 129.156 461.715 129.279 461.165 129.524C460.621 129.763 460.214 130.114 459.942 130.578C459.67 131.042 459.534 131.612 459.534 132.288C459.534 132.958 459.67 133.518 459.942 133.969C460.214 134.42 460.621 134.758 461.165 134.983C461.708 135.208 462.391 135.321 463.213 135.321H467.886V138.781H462.517C460.959 138.781 459.627 138.523 458.52 138.006C457.413 137.489 456.568 136.746 455.984 135.778C455.401 134.804 455.109 133.641 455.109 132.288C455.109 130.943 455.394 129.773 455.964 128.778C456.541 127.777 457.373 127.005 458.46 126.462C459.554 125.911 460.87 125.636 462.408 125.636H470.432V146ZM459.445 136.733H464.088L459.136 146H454.384L459.445 136.733ZM492.769 146L486.227 137.32H484.755V146H480.45V125.636H484.755V133.77H485.62L492.381 125.636H497.741L489.796 135.082L498.109 146H492.769ZM517.838 135.818C517.838 138.039 517.417 139.928 516.576 141.486C515.74 143.044 514.6 144.233 513.155 145.055C511.717 145.871 510.099 146.278 508.303 146.278C506.493 146.278 504.869 145.867 503.431 145.045C501.992 144.223 500.855 143.034 500.02 141.476C499.185 139.918 498.767 138.032 498.767 135.818C498.767 133.598 499.185 131.708 500.02 130.151C500.855 128.593 501.992 127.406 503.431 126.591C504.869 125.769 506.493 125.358 508.303 125.358C510.099 125.358 511.717 125.769 513.155 126.591C514.6 127.406 515.74 128.593 516.576 130.151C517.417 131.708 517.838 133.598 517.838 135.818ZM513.473 135.818C513.473 134.38 513.258 133.167 512.827 132.179C512.403 131.191 511.803 130.442 511.027 129.932C510.252 129.421 509.344 129.166 508.303 129.166C507.262 129.166 506.354 129.421 505.578 129.932C504.803 130.442 504.2 131.191 503.769 132.179C503.345 133.167 503.132 134.38 503.132 135.818C503.132 137.257 503.345 138.47 503.769 139.457C504.2 140.445 504.803 141.194 505.578 141.705C506.354 142.215 507.262 142.47 508.303 142.47C509.344 142.47 510.252 142.215 511.027 141.705C511.803 141.194 512.403 140.445 512.827 139.457C513.258 138.47 513.473 137.257 513.473 135.818ZM521.028 125.636H526.337L531.945 139.318H532.184L537.792 125.636H543.102V146H538.925V132.746H538.756L533.487 145.901H530.643L525.373 132.696H525.204V146H521.028V125.636ZM563.96 125.636V146H559.704V129.136H551.471V146H547.216V125.636H563.96ZM571.569 146H566.955L573.985 125.636H579.533L586.553 146H581.94L576.839 130.29H576.68L571.569 146ZM571.281 137.996H582.178V141.357H571.281V137.996ZM589.004 146V125.636H593.31V134.038H602.05V125.636H606.345V146H602.05V137.588H593.31V146H589.004ZM609.895 125.636H614.19V138.443H614.359L623.159 125.636H626.928V146H622.622V133.183H622.473L613.624 146H609.895V125.636ZM646.115 146H641.82V129.156H638.917C638.088 129.156 637.399 129.279 636.848 129.524C636.305 129.763 635.897 130.114 635.625 130.578C635.354 131.042 635.218 131.612 635.218 132.288C635.218 132.958 635.354 133.518 635.625 133.969C635.897 134.42 636.305 134.758 636.848 134.983C637.392 135.208 638.075 135.321 638.897 135.321H643.57V138.781H638.201C636.643 138.781 635.31 138.523 634.203 138.006C633.096 137.489 632.251 136.746 631.668 135.778C631.085 134.804 630.793 133.641 630.793 132.288C630.793 130.943 631.078 129.773 631.648 128.778C632.225 127.777 633.057 127.005 634.144 126.462C635.238 125.911 636.553 125.636 638.091 125.636H646.115V146ZM635.128 136.733H639.772L634.82 146H630.067L635.128 136.733Z" fill="#ACA7A4"/>
</g>
<defs>
<clipPath id="clip0_1542_1264">
<rect width="648" height="190" fill="white"/>
</clipPath>
<clipPath id="clip1_1542_1264">
<rect width="134.4" height="114.24" fill="white" transform="translate(16.7998 16.96)"/>
</clipPath>
<clipPath id="clip2_1542_1264">
<rect width="48.3" height="59.64" fill="white" transform="translate(35.7002 16.96)"/>
</clipPath>
<clipPath id="clip3_1542_1264">
<rect width="69.3" height="59.64" fill="white" transform="translate(63 16.96)"/>
</clipPath>
<clipPath id="clip4_1542_1264">
<rect width="448" height="110" fill="white" transform="translate(196)"/>
</clipPath>
</defs>
</svg>
