<svg width="648" height="190" viewBox="0 0 648 190" fill="none" xmlns="http://www.w3.org/2000/svg">
<path fill-rule="evenodd" clip-rule="evenodd" d="M168 1H84V148V190L168 148V1Z" fill="#1E1E1E"/>
<path fill-rule="evenodd" clip-rule="evenodd" d="M84 1H0V148L84 190V148V1Z" fill="#FFCA5E"/>
<g clip-path="url(#clip0_1552_502)">
<path d="M16.7998 106H67.1998C67.1998 119.918 55.9174 131.2 41.9998 131.2C28.0822 131.2 16.7998 119.918 16.7998 106Z" fill="#1E1E1E"/>
<path d="M100.8 106H151.2C151.2 119.918 139.917 131.2 126 131.2C112.082 131.2 100.8 119.918 100.8 106Z" fill="#FFCA5E"/>
<rect x="119.7" y="64" width="12.6" height="33.6" fill="#FFCA5E"/>
<rect x="35.7002" y="64" width="12.6" height="33.6" fill="#1E1E1E"/>
<g clip-path="url(#clip1_1552_502)">
<circle cx="42" cy="13.5996" r="56.7" stroke="#1E1E1E" stroke-width="12.6"/>
</g>
<g clip-path="url(#clip2_1552_502)">
<circle cx="126" cy="13.5996" r="56.7" stroke="#FFCA5E" stroke-width="12.6"/>
</g>
</g>
<g clip-path="url(#clip3_1552_502)">
<path d="M197.156 96V16H231.844C237.937 16 243.055 16.8203 247.195 18.4609C251.362 20.1016 254.5 22.4193 256.609 25.4141C258.745 28.4089 259.813 31.9375 259.813 36C259.813 38.9427 259.161 41.625 257.859 44.0469C256.583 46.4687 254.786 48.5 252.469 50.1406C250.151 51.7552 247.443 52.875 244.344 53.5V54.2812C247.781 54.4115 250.906 55.2839 253.719 56.8984C256.531 58.487 258.771 60.6875 260.438 63.5C262.104 66.2865 262.938 69.5677 262.938 73.3437C262.938 77.7187 261.792 81.612 259.5 85.0234C257.234 88.4349 254.005 91.1172 249.813 93.0703C245.62 95.0234 240.62 96 234.813 96H197.156ZM218.875 78.6563H229.031C232.677 78.6563 235.411 77.9792 237.234 76.625C239.057 75.2448 239.969 73.2135 239.969 70.5312C239.969 68.6562 239.539 67.0677 238.68 65.7656C237.82 64.4635 236.596 63.474 235.008 62.7969C233.445 62.1198 231.557 61.7812 229.344 61.7812H218.875V78.6563ZM218.875 48.3437H227.781C229.682 48.3437 231.362 48.0443 232.82 47.4453C234.279 46.8464 235.411 45.987 236.219 44.8672C237.052 43.7214 237.469 42.3281 237.469 40.6875C237.469 38.2135 236.583 36.3255 234.813 35.0234C233.042 33.6953 230.802 33.0312 228.094 33.0312H218.875V48.3437ZM296.752 16V96H275.033V16H296.752ZM311.445 96V16H333.163V78.5H365.507V96H311.445ZM399.468 96H376.03L402.436 16H432.124L458.53 96H435.093L417.593 38.0313H416.968L399.468 96ZM395.093 64.4375H439.155V80.6875H395.093V64.4375ZM539.854 16V96H521.729L492.823 53.9687H492.354V96H470.635V16H489.073L517.51 57.875H518.135V16H539.854ZM577.809 16L590.934 39.2812H591.559L604.84 16H629.059L605.152 56L629.996 96H605.152L591.559 72.25H590.934L577.34 96H552.652L577.184 56L553.434 16H577.809Z" fill="#1E1E1E"/>
</g>
<path d="M201.28 146H196.666L203.696 125.636H209.244L216.264 146H211.651L206.55 130.29H206.391L201.28 146ZM200.991 137.996H211.889V141.357H200.991V137.996ZM221.473 146.278V142.778H222.576C223.127 142.778 223.571 142.712 223.909 142.58C224.247 142.44 224.515 142.238 224.714 141.973C224.92 141.701 225.092 141.363 225.231 140.959L225.48 140.293L218.082 125.636H222.537L227.329 135.659L231.336 125.636H235.731L228.711 142.003C228.373 142.759 227.972 143.461 227.508 144.111C227.051 144.76 226.464 145.284 225.748 145.682C225.032 146.08 224.118 146.278 223.004 146.278H221.473ZM228.841 120.307H231.794C231.787 121.513 231.34 122.484 230.451 123.22C229.57 123.956 228.377 124.324 226.872 124.324C225.36 124.324 224.164 123.956 223.282 123.22C222.401 122.484 221.96 121.513 221.96 120.307H224.893C224.886 120.764 225.032 121.175 225.331 121.54C225.636 121.904 226.149 122.087 226.872 122.087C227.574 122.087 228.078 121.908 228.383 121.55C228.688 121.192 228.841 120.777 228.841 120.307ZM237.845 129.186V125.636H254.569V129.186H248.335V146H244.079V129.186H237.845ZM274.921 132.766H270.566C270.486 132.202 270.324 131.702 270.079 131.264C269.834 130.82 269.519 130.442 269.134 130.131C268.75 129.819 268.306 129.58 267.802 129.415C267.305 129.249 266.764 129.166 266.181 129.166C265.127 129.166 264.209 129.428 263.427 129.952C262.645 130.469 262.038 131.224 261.607 132.219C261.176 133.206 260.961 134.406 260.961 135.818C260.961 137.27 261.176 138.49 261.607 139.477C262.045 140.465 262.655 141.211 263.437 141.714C264.219 142.218 265.124 142.47 266.151 142.47C266.728 142.47 267.262 142.394 267.752 142.241C268.249 142.089 268.69 141.867 269.075 141.575C269.459 141.277 269.777 140.916 270.029 140.491C270.288 140.067 270.467 139.583 270.566 139.04L274.921 139.06C274.808 139.994 274.527 140.896 274.076 141.764C273.632 142.626 273.032 143.398 272.276 144.081C271.527 144.757 270.632 145.294 269.592 145.692C268.557 146.083 267.388 146.278 266.082 146.278C264.265 146.278 262.641 145.867 261.209 145.045C259.784 144.223 258.657 143.034 257.829 141.476C257.007 139.918 256.596 138.032 256.596 135.818C256.596 133.598 257.013 131.708 257.849 130.151C258.684 128.593 259.817 127.406 261.249 126.591C262.681 125.769 264.292 125.358 266.082 125.358C267.262 125.358 268.355 125.524 269.363 125.855C270.377 126.187 271.275 126.67 272.057 127.307C272.84 127.937 273.476 128.709 273.967 129.624C274.464 130.538 274.782 131.586 274.921 132.766ZM297.282 135.818C297.282 138.039 296.861 139.928 296.019 141.486C295.184 143.044 294.043 144.233 292.598 145.055C291.16 145.871 289.542 146.278 287.746 146.278C285.936 146.278 284.312 145.867 282.874 145.045C281.435 144.223 280.299 143.034 279.463 141.476C278.628 139.918 278.211 138.032 278.211 135.818C278.211 133.598 278.628 131.708 279.463 130.151C280.299 128.593 281.435 127.406 282.874 126.591C284.312 125.769 285.936 125.358 287.746 125.358C289.542 125.358 291.16 125.769 292.598 126.591C294.043 127.406 295.184 128.593 296.019 130.151C296.861 131.708 297.282 133.598 297.282 135.818ZM292.916 135.818C292.916 134.38 292.701 133.167 292.27 132.179C291.846 131.191 291.246 130.442 290.47 129.932C289.695 129.421 288.787 129.166 287.746 129.166C286.705 129.166 285.797 129.421 285.022 129.932C284.246 130.442 283.643 131.191 283.212 132.179C282.788 133.167 282.576 134.38 282.576 135.818C282.576 137.257 282.788 138.47 283.212 139.457C283.643 140.445 284.246 141.194 285.022 141.705C285.797 142.215 286.705 142.47 287.746 142.47C288.787 142.47 289.695 142.215 290.47 141.705C291.246 141.194 291.846 140.445 292.27 139.457C292.701 138.47 292.916 137.257 292.916 135.818ZM301.031 146V125.636H309.065C310.609 125.636 311.925 125.931 313.012 126.521C314.099 127.105 314.928 127.917 315.498 128.957C316.075 129.991 316.363 131.185 316.363 132.537C316.363 133.889 316.072 135.082 315.488 136.116C314.905 137.151 314.06 137.956 312.953 138.533C311.852 139.109 310.52 139.398 308.956 139.398H303.835V135.947H308.26C309.088 135.947 309.771 135.805 310.308 135.52C310.851 135.228 311.256 134.827 311.521 134.317C311.793 133.8 311.929 133.206 311.929 132.537C311.929 131.861 311.793 131.271 311.521 130.767C311.256 130.257 310.851 129.862 310.308 129.584C309.764 129.299 309.075 129.156 308.24 129.156H305.336V146H301.031ZM337.687 132.766H333.332C333.252 132.202 333.09 131.702 332.845 131.264C332.599 130.82 332.285 130.442 331.9 130.131C331.516 129.819 331.072 129.58 330.568 129.415C330.071 129.249 329.53 129.166 328.947 129.166C327.893 129.166 326.975 129.428 326.193 129.952C325.411 130.469 324.804 131.224 324.373 132.219C323.942 133.206 323.727 134.406 323.727 135.818C323.727 137.27 323.942 138.49 324.373 139.477C324.811 140.465 325.42 141.211 326.203 141.714C326.985 142.218 327.89 142.47 328.917 142.47C329.494 142.47 330.027 142.394 330.518 142.241C331.015 142.089 331.456 141.867 331.84 141.575C332.225 141.277 332.543 140.916 332.795 140.491C333.054 140.067 333.233 139.583 333.332 139.04L337.687 139.06C337.574 139.994 337.293 140.896 336.842 141.764C336.398 142.626 335.798 143.398 335.042 144.081C334.293 144.757 333.398 145.294 332.358 145.692C331.323 146.083 330.153 146.278 328.848 146.278C327.031 146.278 325.407 145.867 323.975 145.045C322.55 144.223 321.423 143.034 320.595 141.476C319.773 139.918 319.362 138.032 319.362 135.818C319.362 133.598 319.779 131.708 320.615 130.151C321.45 128.593 322.583 127.406 324.015 126.591C325.447 125.769 327.058 125.358 328.848 125.358C330.027 125.358 331.121 125.524 332.129 125.855C333.143 126.187 334.041 126.67 334.823 127.307C335.606 127.937 336.242 128.709 336.733 129.624C337.23 130.538 337.548 131.586 337.687 132.766ZM345.64 125.636V146H341.334V125.636H345.64ZM349.742 146V125.636H354.047V134.038H362.788V125.636H367.083V146H362.788V137.588H354.047V146H349.742ZM384.705 125.636V129.186H375.498V146H371.193V125.636H384.705ZM389.044 146H384.43L391.46 125.636H397.008L404.028 146H399.415L394.314 130.29H394.155L389.044 146ZM388.756 137.996H399.653V141.357H388.756V137.996ZM407.039 146V125.636H415.193C416.691 125.636 417.94 125.858 418.941 126.303C419.942 126.747 420.695 127.363 421.198 128.152C421.702 128.934 421.954 129.836 421.954 130.857C421.954 131.652 421.795 132.351 421.477 132.955C421.159 133.551 420.721 134.042 420.164 134.426C419.614 134.804 418.984 135.072 418.275 135.232V135.43C419.051 135.464 419.776 135.682 420.453 136.087C421.135 136.491 421.689 137.058 422.113 137.787C422.537 138.509 422.749 139.371 422.749 140.372C422.749 141.453 422.481 142.417 421.944 143.266C421.414 144.107 420.628 144.774 419.588 145.264C418.547 145.755 417.264 146 415.74 146H407.039ZM411.345 142.48H414.855C416.054 142.48 416.929 142.251 417.48 141.794C418.03 141.33 418.305 140.714 418.305 139.945C418.305 139.381 418.169 138.884 417.897 138.453C417.625 138.022 417.238 137.684 416.734 137.439C416.237 137.194 415.643 137.071 414.954 137.071H411.345V142.48ZM411.345 134.158H414.536C415.126 134.158 415.65 134.055 416.107 133.849C416.571 133.637 416.936 133.339 417.201 132.955C417.473 132.57 417.609 132.109 417.609 131.572C417.609 130.837 417.347 130.243 416.823 129.793C416.306 129.342 415.571 129.116 414.616 129.116H411.345V134.158ZM429.621 146H425.007L432.037 125.636H437.585L444.605 146H439.992L434.891 130.29H434.732L429.621 146ZM429.333 137.996H440.23V141.357H429.333V137.996ZM463.247 146H458.952V129.156H456.048C455.22 129.156 454.53 129.279 453.98 129.524C453.436 129.763 453.029 130.114 452.757 130.578C452.485 131.042 452.349 131.612 452.349 132.288C452.349 132.958 452.485 133.518 452.757 133.969C453.029 134.42 453.436 134.758 453.98 134.983C454.523 135.208 455.206 135.321 456.028 135.321H460.702V138.781H455.332C453.774 138.781 452.442 138.523 451.335 138.006C450.228 137.489 449.383 136.746 448.8 135.778C448.216 134.804 447.925 133.641 447.925 132.288C447.925 130.943 448.21 129.773 448.78 128.778C449.356 127.777 450.188 127.005 451.275 126.462C452.369 125.911 453.685 125.636 455.223 125.636H463.247V146ZM452.26 136.733H456.903L451.952 146H447.199L452.26 136.733ZM486.704 146L480.162 137.32H478.69V146H474.385V125.636H478.69V133.77H479.555L486.317 125.636H491.676L483.731 135.082L492.044 146H486.704ZM498.279 146H493.665L500.695 125.636H506.243L513.263 146H508.65L503.549 130.29H503.39L498.279 146ZM497.991 137.996H508.888V141.357H497.991V137.996ZM516.274 125.636H521.584L527.192 139.318H527.431L533.038 125.636H538.348V146H534.172V132.746H534.003L528.733 145.901H525.889L520.619 132.696H520.45V146H516.274V125.636ZM559.766 125.636V146H555.511V129.136H547.278V146H543.022V125.636H559.766ZM567.935 146H563.322L570.352 125.636H575.9L582.92 146H578.306L573.205 130.29H573.046L567.935 146ZM567.647 137.996H578.545V141.357H567.647V137.996ZM585.931 146V125.636H590.236V134.038H598.976V125.636H603.272V146H598.976V137.588H590.236V146H585.931ZM611.687 125.636V146H607.381V125.636H611.687ZM631.42 146H627.124V129.156H624.221C623.392 129.156 622.703 129.279 622.153 129.524C621.609 129.763 621.202 130.114 620.93 130.578C620.658 131.042 620.522 131.612 620.522 132.288C620.522 132.958 620.658 133.518 620.93 133.969C621.202 134.42 621.609 134.758 622.153 134.983C622.696 135.208 623.379 135.321 624.201 135.321H628.874V138.781H623.505C621.947 138.781 620.615 138.523 619.508 138.006C618.401 137.489 617.556 136.746 616.972 135.778C616.389 134.804 616.097 133.641 616.097 132.288C616.097 130.943 616.382 129.773 616.952 128.778C617.529 127.777 618.361 127.005 619.448 126.462C620.542 125.911 621.858 125.636 623.396 125.636H631.42V146ZM620.433 136.733H625.076L620.124 146H615.371L620.433 136.733Z" fill="#ACA7A4"/>
<defs>
<clipPath id="clip0_1552_502">
<rect width="134.4" height="114.24" fill="white" transform="translate(16.7998 16.96)"/>
</clipPath>
<clipPath id="clip1_1552_502">
<rect width="48.3" height="59.64" fill="white" transform="translate(35.7002 16.96)"/>
</clipPath>
<clipPath id="clip2_1552_502">
<rect width="69.3" height="59.64" fill="white" transform="translate(63 16.96)"/>
</clipPath>
<clipPath id="clip3_1552_502">
<rect width="438" height="110" fill="white" transform="translate(196)"/>
</clipPath>
</defs>
</svg>
