<svg width="442" height="350" viewBox="0 0 442 350" fill="none" xmlns="http://www.w3.org/2000/svg">
<g clip-path="url(#clip0_1552_462)">
<g clip-path="url(#clip1_1552_462)">
<path d="M141 125H201C201 141.569 187.569 155 171 155C154.431 155 141 141.569 141 125Z" fill="white"/>
<rect x="163.5" y="75" width="15" height="40" fill="white"/>
<g clip-path="url(#clip2_1552_462)">
<path fill-rule="evenodd" clip-rule="evenodd" d="M210.872 59.8364C200.272 69.2692 186.305 75 171 75C137.863 75 111 48.1371 111 15C111 -18.1371 137.863 -45 171 -45C186.305 -45 200.272 -39.2692 210.872 -29.8364C213.874 -33.8552 217.269 -37.563 221 -40.9027C207.731 -52.7787 190.209 -60 171 -60C129.579 -60 96 -26.4214 96 15C96 56.4214 129.579 90 171 90C190.209 90 207.731 82.7787 221 70.9027C217.269 67.563 213.874 63.8552 210.872 59.8364ZM221 48.1779C223.866 52.4884 227.274 56.4071 231.128 59.8364C240.469 47.3296 246 31.8107 246 15C246 -1.81071 240.469 -17.3296 231.128 -29.8364C227.274 -26.4071 223.866 -22.4884 221 -18.178C227.318 -8.67489 231 2.73262 231 15C231 27.2674 227.318 38.6749 221 48.1779Z" fill="white"/>
</g>
<path d="M126 0H121V175L126 177V0Z" fill="white"/>
<rect x="121" width="100" height="5" fill="white"/>
<path d="M121 170L221 220V225L121 175V170Z" fill="white"/>
<path fill-rule="evenodd" clip-rule="evenodd" d="M221 175V70.9027C232.52 81.2137 247.247 88.016 263.5 89.6297V115H278.5V89.6297V74.5358C276.043 74.8422 273.54 75 271 75C250.13 75 231.749 64.3449 221 48.178V0H278.5H321V48.178V70.9027V124.5V175L221 225V175ZM301 125C301 141.569 287.569 155 271 155C254.431 155 241 141.569 241 125H301Z" fill="white"/>
</g>
<path d="M5.52246 340V260H40.21C46.3037 260 51.4209 260.82 55.5615 262.461C59.7282 264.102 62.8662 266.419 64.9756 269.414C67.111 272.409 68.1787 275.937 68.1787 280C68.1787 282.943 67.5277 285.625 66.2256 288.047C64.9495 290.469 63.1527 292.5 60.835 294.141C58.5173 295.755 55.8089 296.875 52.71 297.5V298.281C56.1475 298.411 59.2725 299.284 62.085 300.898C64.8975 302.487 67.137 304.687 68.8037 307.5C70.4704 310.286 71.3037 313.568 71.3037 317.344C71.3037 321.719 70.1579 325.612 67.8662 329.023C65.6006 332.435 62.3714 335.117 58.1787 337.07C53.986 339.023 48.986 340 43.1787 340H5.52246ZM27.2412 322.656H37.3975C41.0433 322.656 43.7777 321.979 45.6006 320.625C47.4235 319.245 48.335 317.214 48.335 314.531C48.335 312.656 47.9053 311.068 47.0459 309.766C46.1865 308.464 44.9626 307.474 43.374 306.797C41.8115 306.12 39.9235 305.781 37.71 305.781H27.2412V322.656ZM27.2412 292.344H36.1475C38.0485 292.344 39.7282 292.044 41.1865 291.445C42.6449 290.846 43.7777 289.987 44.585 288.867C45.4183 287.721 45.835 286.328 45.835 284.687C45.835 282.214 44.9495 280.326 43.1787 279.023C41.4079 277.695 39.1683 277.031 36.46 277.031H27.2412V292.344ZM105.118 260V340H83.399V260H105.118ZM119.811 340V260H141.529V322.5H173.873V340H119.811ZM207.834 340H184.396L210.803 260H240.49L266.896 340H243.459L225.959 282.031H225.334L207.834 340ZM203.459 308.438H247.521V324.687H203.459V308.438ZM348.22 260V340H330.095L301.189 297.969H300.72V340H279.001V260H297.439L325.876 301.875H326.501V260H348.22ZM386.175 260L399.3 283.281H399.925L413.206 260H437.425L413.519 300L438.362 340H413.519L399.925 316.25H399.3L385.706 340H361.019L385.55 300L361.8 260H386.175Z" fill="white"/>
</g>
<defs>
<clipPath id="clip0_1552_462">
<rect width="442" height="350" fill="white"/>
</clipPath>
<clipPath id="clip1_1552_462">
<rect width="200" height="225" fill="white" transform="translate(121)"/>
</clipPath>
<clipPath id="clip2_1552_462">
<rect width="57.5" height="30.5" fill="white" transform="translate(163.5 59.5)"/>
</clipPath>
</defs>
</svg>
